<?xml version="1.0" encoding="UTF-8"?><svg xmlns="http://www.w3.org/2000/svg" viewBox="0 0 1000 1000" x="0px" y="0px" width="1000px" height="1000px" xmlns:xlink="http://www.w3.org/1999/xlink" version="1.1"><g style="isolation:isolate"><g id="Layer_1" data-name="Layer 1"><path d="M251.623,395.87h46.095a0,0,0,0,1,0,0V773.595a7.275,7.275,0,0,1-7.275,7.275H258.9a7.275,7.275,0,0,1-7.275-7.275V395.87A0,0,0,0,1,251.623,395.87Z" fill="#543889" stroke="#543889" stroke-linecap="round" stroke-linejoin="round" stroke-width="8"/><polygon points="289.268 330.87 260.073 330.87 258.392 395.87 290.949 395.87 289.268 330.87" fill="#543889" stroke="#543889" stroke-linecap="round" stroke-linejoin="round" stroke-width="8"/><polygon points="280.666 323.87 268.675 323.87 260.073 330.87 289.268 330.87 280.666 323.87" fill="#543889" stroke="#543889" stroke-linecap="round" stroke-linejoin="round" stroke-width="8"/><rect x="267.719" y="297.87" width="13.903" height="27.167" stroke-width="8" stroke="#543889" stroke-linecap="round" stroke-linejoin="round" fill="#543889"/><line x1="274.67" y1="279.37" x2="274.67" y2="296.995" fill="#543889" stroke="#543889" stroke-linecap="round" stroke-linejoin="round" stroke-width="8"/><path d="M239.331,387.87h46.095a0,0,0,0,1,0,0V765.595a7.275,7.275,0,0,1-7.275,7.275H246.606a7.275,7.275,0,0,1-7.275-7.275V387.87A0,0,0,0,1,239.331,387.87Z" fill="#ffa124"/><path d="M270.876,387.87h14.55a0,0,0,0,1,0,0V765.595a7.275,7.275,0,0,1-7.275,7.275h0a7.275,7.275,0,0,1-7.275-7.275V387.87A0,0,0,0,1,270.876,387.87Z" fill="#3f4545" opacity="0.34" style="mix-blend-mode:multiply"/><path d="M239.331,387.87h15.347a0,0,0,0,1,0,0V765.595a7.275,7.275,0,0,1-7.275,7.275h-.8a7.275,7.275,0,0,1-7.275-7.275V387.87a0,0,0,0,1,0,0Z" fill="#3f4545" opacity="0.78" style="mix-blend-mode:screen"/><path d="M278.151,776.87H246.606A11.288,11.288,0,0,1,235.331,765.6V387.87a4,4,0,0,1,4-4h46.1a4,4,0,0,1,4,4V765.6A11.288,11.288,0,0,1,278.151,776.87Zm-34.82-385V765.6a3.279,3.279,0,0,0,3.275,3.275h31.545a3.279,3.279,0,0,0,3.275-3.275V391.87Z" fill="#1f2120"/><polygon points="276.976 322.87 247.781 322.87 246.1 387.87 278.657 387.87 276.976 322.87" fill="#b5b4b4"/><polygon points="276.976 322.87 266.916 322.87 268.596 387.87 278.657 387.87 276.976 322.87" fill="#b5b4b4" opacity="0.39" style="mix-blend-mode:multiply"/><polygon points="247.781 322.87 246.1 387.87 256.855 387.87 258.536 322.87 247.781 322.87" fill="#fff" opacity="0.5"/><path d="M278.657,391.87H246.1a4,4,0,0,1-4-4.1l1.68-65a4,4,0,0,1,4-3.9h29.195a4,4,0,0,1,4,3.9l1.68,65a4,4,0,0,1-4,4.1Zm-28.452-8h24.347l-1.474-57h-21.4Z" fill="#1f2120"/><rect x="239.305" y="729" width="46.095" height="20" fill="#ff1a1a"/><rect x="276.066" y="730" width="9.356" height="20" fill="#e02f2f" opacity="0.63" style="mix-blend-mode:multiply"/><rect x="239.322" y="729.25" width="17.533" height="20" fill="#ea4949"/><path d="M285.4,753H239.305a4,4,0,0,1-4-4V729a4,4,0,0,1,4-4H285.4a4,4,0,0,1,4,4v20A4,4,0,0,1,285.4,753Zm-42.094-8H281.4V733H243.305Z" fill="#1f2120"/><rect x="239.322" y="426.87" width="46.095" height="20" fill="#e02f2f"/><rect x="276.061" y="426.87" width="9.356" height="20" fill="#e02f2f" opacity="0.63" style="mix-blend-mode:multiply"/><rect x="239.322" y="426.87" width="17.533" height="20" fill="#ea4949"/><path d="M285.417,450.87H239.322a4,4,0,0,1-4-4v-20a4,4,0,0,1,4-4h46.095a4,4,0,0,1,4,4v20A4,4,0,0,1,285.417,450.87Zm-42.095-8h38.095v-12H243.322Z" fill="#1f2120"/><path d="M276.976,326.87H247.781a4,4,0,0,1-2.525-7.1l8.6-7a4,4,0,0,1,2.525-.9h11.991a4,4,0,0,1,2.525.9l8.6,7a4,4,0,0,1-2.525,7.1Z" fill="#1f2120"/><rect x="255.427" y="289.87" width="13.903" height="27.167" fill="#b5b4b4"/><path d="M269.33,321.037h-13.9a4,4,0,0,1-4-4V289.87a4,4,0,0,1,4-4h13.9a4,4,0,0,1,4,4v27.167A4,4,0,0,1,269.33,321.037Zm-9.9-8h5.9V293.87h-5.9Z" fill="#1f2120"/><path d="M262.378,294a5,5,0,0,1-5-5V271.37a5,5,0,0,1,10,0V289A5,5,0,0,1,262.378,294Z" fill="#1f2120"/><path d="M454.55,768.718h-6.534a4,4,0,1,1,0-8h6.534a24.7,24.7,0,0,0,24.667-24.667v-94.42l-8.958-12.975a4,4,0,0,1-.464-3.651l9.667-26.333a4,4,0,0,1,7.755,1.379v40.276c0,.035,0,.071,0,.107v95.617A32.7,32.7,0,0,1,454.55,768.718Zm23.47-142.9,1.2,1.735v-5Z" fill="#543889"/><path d="M457.156,669.4H411.477c-9.934-78.638-1.415-224.332,7.477-282.53H449.68C458.572,445.068,467.09,590.762,457.156,669.4Z" fill="#543889" stroke="#543889" stroke-linecap="round" stroke-linejoin="round" stroke-width="8"/><path d="M465.353,712.585c-6.459,53.387-21.865,85.9-31.036,85.9s-24.578-32.509-31.036-85.9c-5.09-46.807-3.639-93.7-1.7-140.243h65.471C468.991,618.888,470.442,665.778,465.353,712.585Z" fill="#543889" stroke="#543889" stroke-linecap="round" stroke-linejoin="round" stroke-width="8"/><path d="M457.378,331.43c-14.345-20.261-23.061-60.06-23.061-60.06s-8.717,39.8-23.062,60.06a2.834,2.834,0,0,0-.029,3.244,66.978,66.978,0,0,1,9.171,52.2h27.84a66.974,66.974,0,0,1,9.171-52.2A2.834,2.834,0,0,0,457.378,331.43Z" fill="#543889" stroke="#543889" stroke-linecap="round" stroke-linejoin="round" stroke-width="8"/><path d="M441.55,761.718h-6.534a4,4,0,1,1,0-8h6.534a24.7,24.7,0,0,0,24.667-24.667v-94.42l-8.958-12.975a4,4,0,0,1-.464-3.651l9.667-26.333a4,4,0,0,1,7.755,1.379v40.276c0,.035,0,.071,0,.107v95.617A32.7,32.7,0,0,1,441.55,761.718Zm23.47-142.9,1.2,1.735v-5Z" fill="#1f2120"/><path d="M444.156,662.4H398.477c-9.934-78.638-1.415-224.332,7.477-282.53H436.68C445.572,438.068,454.09,583.762,444.156,662.4Z" fill="#ff1a1a"/><path d="M436.68,379.87h-6.445c4.781,61.63,15.1,203.892,5.171,282.53h8.75C454.09,583.762,445.572,438.068,436.68,379.87Z" fill="#ff1a1a" opacity="0.2" style="mix-blend-mode:difference"/><path d="M425.777,657.927c-9.631-76.237-8.688-203.677-4.46-278.057H405.954c-8.892,58.2-17.411,203.892-7.477,282.53h45.679c.185-1.465.362-2.962.534-4.473Z" fill="#3f4545" opacity="0.68" style="mix-blend-mode:lighten"/><path d="M444.156,666.4H398.477a4,4,0,0,1-3.968-3.5c-9.753-77.2-1.95-221.844,7.491-283.635a4,4,0,0,1,3.954-3.4H436.68a4,4,0,0,1,3.954,3.4c9.441,61.791,17.243,206.432,7.491,283.635A4,4,0,0,1,444.156,666.4Zm-42.135-8h38.591c8.847-75.923,1.622-212.389-7.382-274.53H409.4C400.4,446.011,393.174,582.477,402.021,658.4Z" fill="#1f2120"/><path d="M452.353,705.585c-6.459,53.387-21.865,85.9-31.036,85.9s-24.578-32.509-31.036-85.9c-5.09-46.807-3.639-93.7-1.7-140.243h65.471C455.991,611.888,457.442,658.778,452.353,705.585Z" fill="#ff1a1a"/><path d="M454.052,565.342H442.9c1.939,46.546,3.39,93.436-1.7,140.243-5.276,43.61-16.52,73.278-25.462,82.686,2,2.109,3.895,3.21,5.575,3.21,9.171,0,24.577-32.509,31.036-85.9C457.442,658.778,455.991,611.888,454.052,565.342Z" fill="#ff1a1a" opacity="0.2" style="mix-blend-mode:difference"/><path d="M390.281,705.585a300.828,300.828,0,0,0,9.859,49.355c19.419-4.13,26.391-69.212,26.391-156.248,0-9.337-.35-24.444-.692-33.35H388.581C386.642,611.888,385.191,658.778,390.281,705.585Z" fill="#3f4545" opacity="0.68" style="mix-blend-mode:lighten"/><path d="M421.317,795.48h0c-13.79,0-28.84-38.438-35.006-89.415-5.072-46.633-3.71-93.252-1.726-140.889a4,4,0,0,1,4-3.834h65.471a4,4,0,0,1,4,3.834c1.984,47.637,3.346,94.256-1.72,140.842l0,.047C450.157,757.039,435.107,795.48,421.317,795.48Zm-28.9-226.138c-1.881,45.988-3.032,91.021,1.838,135.81,2.87,23.721,7.894,45.64,14.142,61.671,6.616,16.972,11.874,20.612,12.92,20.657,1.042-.045,6.3-3.685,12.915-20.657,6.246-16.026,11.269-37.934,14.144-61.695,4.868-44.781,3.717-89.807,1.836-135.786Zm59.934,136.243h0Z" fill="#1f2120"/><path d="M444.378,324.43c-14.345-20.261-23.061-60.06-23.061-60.06s-8.717,39.8-23.062,60.06a2.834,2.834,0,0,0-.029,3.244,66.978,66.978,0,0,1,9.171,52.2h27.84a66.974,66.974,0,0,1,9.171-52.2A2.834,2.834,0,0,0,444.378,324.43Z" fill="#eaeaea"/><path d="M444.378,324.43c-14.345-20.261-23.061-60.06-23.061-60.06s-2.033,9.28-5.75,21.159c3.981,12.721,9.893,28.423,17.311,38.9a2.834,2.834,0,0,1,.03,3.244,66.974,66.974,0,0,0-9.171,52.2h11.5a66.974,66.974,0,0,1,9.171-52.2A2.834,2.834,0,0,0,444.378,324.43Z" fill="#b5b4b4" opacity="0.37" style="mix-blend-mode:multiply"/><path d="M435.237,383.87H407.4a4,4,0,0,1-3.878-4.981,62.763,62.763,0,0,0-8.612-48.982,6.806,6.806,0,0,1,.083-7.788c13.7-19.356,22.334-58.215,22.42-58.606a4,4,0,0,1,7.814,0c.086.391,8.715,39.251,22.419,58.605h0a6.808,6.808,0,0,1,.083,7.788,62.761,62.761,0,0,0-8.612,48.982,4,4,0,0,1-3.878,4.981Zm-22.918-8h18a71.408,71.408,0,0,1,10.344-49.781c-8.843-12.824-15.468-32.285-19.342-45.745-3.875,13.46-10.5,32.921-19.342,45.745A71.418,71.418,0,0,1,412.319,375.87Zm28.794-49.13Z" fill="#1f2120"/><path d="M421.317,326.12a4,4,0,0,1-4-4V264.37a4,4,0,0,1,8,0v57.75A4,4,0,0,1,421.317,326.12Z" fill="#1f2120"/><circle cx="421.337" cy="324.332" r="7.781" fill="#1f2120"/><rect x="731.508" y="373.989" width="53.997" height="348.864" stroke-width="8" stroke="#543889" stroke-linecap="round" stroke-linejoin="round" fill="#543889"/><polygon points="785.506 373.989 731.508 373.989 758.507 293.36 785.506 373.989" fill="#543889" stroke="#543889" stroke-linecap="round" stroke-linejoin="round" stroke-width="8"/><path d="M731.508,722.853h54a0,0,0,0,1,0,0v17.89a20.29,20.29,0,0,1-20.29,20.29H751.8a20.29,20.29,0,0,1-20.29-20.29v-17.89A0,0,0,0,1,731.508,722.853Z" fill="#543889" stroke="#543889" stroke-linecap="round" stroke-linejoin="round" stroke-width="8"/><rect x="718.508" y="364.989" width="53.997" height="348.864" fill="#47a942"/><path d="M772.506,717.853h-54a4,4,0,0,1-4-4V364.989a4,4,0,0,1,4-4h54a4,4,0,0,1,4,4V713.853A4,4,0,0,1,772.506,717.853Zm-50-8h46V368.989h-46Z" fill="#1f2120"/><path d="M755.506,717.853h-20a4,4,0,0,1-4-4V364.989a4,4,0,0,1,4-4h20a4,4,0,0,1,4,4V713.853A4,4,0,0,1,755.506,717.853Zm-16-8h12V368.989h-12Z" fill="#1f2120"/><polygon points="772.506 364.989 718.508 364.989 745.507 284.36 772.506 364.989" fill="#c4c4c4"/><path d="M772.506,368.989h-54a4,4,0,0,1-3.793-5.27l27-80.629a4,4,0,0,1,7.586,0l27,80.629a4,4,0,0,1-3.793,5.27Zm-48.44-8h42.882l-21.441-64.031Z" fill="#1f2120"/><path d="M718.508,713.853h54a0,0,0,0,1,0,0v17.89a20.29,20.29,0,0,1-20.29,20.29H738.8a20.29,20.29,0,0,1-20.29-20.29v-17.89A0,0,0,0,1,718.508,713.853Z" fill="#c4c4c4"/><path d="M752.216,756.033H738.8a24.317,24.317,0,0,1-24.289-24.29v-17.89a4,4,0,0,1,4-4h54a4,4,0,0,1,4,4v17.89A24.318,24.318,0,0,1,752.216,756.033Zm-29.707-38.18v13.89a16.307,16.307,0,0,0,16.289,16.29h13.418a16.308,16.308,0,0,0,16.29-16.29v-13.89Z" fill="#1f2120"/><rect x="718.508" y="678.411" width="53.997" height="35.441" fill="#cc0"/><path d="M772.506,717.853h-54a4,4,0,0,1-4-4V678.411a4,4,0,0,1,4-4h54a4,4,0,0,1,4,4v35.442A4,4,0,0,1,772.506,717.853Zm-50-8h46V682.411h-46Z" fill="#1f2120"/><polygon points="745.507 284.36 734.613 316.893 756.401 316.893 745.507 284.36" fill="#1f2120"/><path d="M624.573,776.343H583.538a8,8,0,0,1-8-7.966L574.056,409.4h60l-1.483,358.981A8,8,0,0,1,624.573,776.343Z" fill="#543889" stroke="#543889" stroke-linecap="round" stroke-linejoin="round" stroke-width="8"/><polygon points="629.056 405.396 579.056 405.396 581.41 387.203 626.701 387.203 629.056 405.396" fill="#543889" stroke="#543889" stroke-linecap="round" stroke-linejoin="round" stroke-width="8"/><polygon points="623.531 387.203 584.581 387.203 587.159 339.37 620.953 339.37 623.531 387.203" fill="#543889" stroke="#543889" stroke-linecap="round" stroke-linejoin="round" stroke-width="8"/><polygon points="615.281 339.37 592.531 339.37 592.531 311.12 615.281 291.12 615.281 339.37" fill="#543889" stroke="#543889" stroke-linecap="round" stroke-linejoin="round" stroke-width="8"/><path d="M611.573,764.343H570.538a8,8,0,0,1-8-7.966L561.056,397.4h60l-1.483,358.981A8,8,0,0,1,611.573,764.343Z" fill="#00b3c6"/><path d="M582.013,756.376,580.531,397.4H561.056l1.483,358.98a8,8,0,0,0,8,7.967h19.475A8,8,0,0,1,582.013,756.376Z" fill="#00b3c6" style="mix-blend-mode:screen"/><path d="M600.1,756.376l1.483-358.98h19.475l-1.483,358.98a8,8,0,0,1-8,7.967H592.1A8,8,0,0,0,600.1,756.376Z" fill="#00b3c6" opacity="0.53" style="mix-blend-mode:multiply"/><path d="M611.573,768.344H570.538a12.024,12.024,0,0,1-12-11.95l-1.482-358.981a4,4,0,0,1,4-4.017h60a4,4,0,0,1,4,4.017l-1.483,358.981A12.024,12.024,0,0,1,611.573,768.344ZM565.072,401.4l1.466,354.964a4.008,4.008,0,0,0,4,3.984h41.035a4.008,4.008,0,0,0,4-3.984L617.039,401.4Z" fill="#1f2120"/><polygon points="616.056 397.396 566.056 397.396 568.41 379.203 613.701 379.203 616.056 397.396" fill="#414141"/><path d="M616.056,401.4h-50a4,4,0,0,1-3.967-4.513l2.354-18.193a4,4,0,0,1,3.967-3.487H613.7a4,4,0,0,1,3.967,3.487l2.354,18.193a4,4,0,0,1-3.966,4.513Zm-45.45-8h40.9L610.186,383.2h-38.26Z" fill="#1f2120"/><polygon points="610.531 379.203 571.581 379.203 574.159 331.37 607.953 331.37 610.531 379.203" fill="#00b3c6"/><polygon points="574.159 331.37 571.581 379.203 585.247 379.203 585.506 331.37 574.159 331.37" fill="#00b3c6" style="mix-blend-mode:screen"/><polygon points="608.962 331.37 611.539 379.203 597.873 379.203 596.506 331.37 608.962 331.37" fill="#00b3c6" opacity="0.53" style="mix-blend-mode:multiply"/><path d="M610.53,383.2H571.581a4,4,0,0,1-3.994-4.215l2.577-47.834a4,4,0,0,1,3.994-3.784h33.795a4,4,0,0,1,3.994,3.784l2.577,47.834a4,4,0,0,1-3.994,4.215Zm-34.727-8h30.506l-2.146-39.833H577.948Z" fill="#1f2120"/><path d="M610.53,383.2H571.581a4,4,0,0,1-3.994-4.215l2.577-47.834a4,4,0,0,1,3.994-3.784h33.795a4,4,0,0,1,3.994,3.784l2.577,47.834a4,4,0,0,1-3.994,4.215Zm-34.727-8h30.506l-2.146-39.833H577.948Z" fill="#1f2120"/><path d="M610.53,383.2H571.581a4,4,0,0,1-3.994-4.215l2.577-47.834a4,4,0,0,1,3.994-3.784h33.795a4,4,0,0,1,3.994,3.784l2.577,47.834a4,4,0,0,1-3.994,4.215Zm-34.727-8h30.506l-2.146-39.833H577.948Z" fill="#1f2120"/><path d="M610.53,383.2H571.581a4,4,0,0,1-3.994-4.215l2.577-47.834a4,4,0,0,1,3.994-3.784h33.795a4,4,0,0,1,3.994,3.784l2.577,47.834a4,4,0,0,1-3.994,4.215Zm-34.727-8h30.506l-2.146-39.833H577.948Z" fill="#1f2120"/><polygon points="602.281 331.37 579.531 331.37 579.531 303.12 602.281 283.12 602.281 331.37" fill="#ffc41d"/><path d="M602.28,335.37H579.53a4,4,0,0,1-4-4V303.12a4,4,0,0,1,1.36-3l22.75-20a4,4,0,0,1,6.64,3v48.25A4,4,0,0,1,602.28,335.37Zm-18.75-8h14.75V291.962l-14.75,12.967Z" fill="#1f2120"/><path d="M562.435,731.332l.1,25.044a8,8,0,0,0,8,7.967h41.035a8,8,0,0,0,8-7.967l.1-25.044Z" fill="#414141"/><path d="M600.343,731.332l-.1,25.044a8,8,0,0,1-8,7.967h19.333a8,8,0,0,0,8-7.967l.1-25.044Z" fill="#414141" opacity="0.4" style="mix-blend-mode:multiply"/><path d="M582.539,756.376l-.1-25.044h-20l.1,25.044a8,8,0,0,0,8,7.967h20A8,8,0,0,1,582.539,756.376Z" fill="#414141" style="mix-blend-mode:screen"/><path d="M611.573,768.344H570.538a12.024,12.024,0,0,1-12-11.95l-.1-25.045a4,4,0,0,1,4-4.017h57.242a4,4,0,0,1,4,4.017l-.1,25.045A12.024,12.024,0,0,1,611.573,768.344Zm-45.122-33.012.087,21.028a4.008,4.008,0,0,0,4,3.984h41.035a4.008,4.008,0,0,0,4-3.984l.087-21.028Z" fill="#1f2120"/></g></g></svg>